<?xml version="1.0" encoding="UTF-8" standalone="no"?>
<!-- Created with Inkscape (http://www.inkscape.org/) -->
<svg xmlns:svg="http://www.w3.org/2000/svg" xmlns="http://www.w3.org/2000/svg" version="1.0" width="676.55127" height="676.08752" id="svg2">
  <defs id="defs4"/>
  <path d="M 398.38627,523.45026 C 369.62782,514.33252 323.5326,516.63197 309.39301,517.01489 C 216.17112,516.55975 232.92799,419.31667 313.53411,421.48842 C 313.11123,430.33371 313.3121,447.59289 312.94504,448.08196 C 260.00392,445.54058 264.63394,494.17965 304.83669,494.05743 C 321.70744,494.58089 381.14074,492.19825 394.60032,505.08083 C 407.07888,515.92899 417.17898,531.27109 398.38627,523.45026 z M 362.13196,421.71267 C 426.55007,424.75156 412.02735,372.85911 375.02194,371.51397 C 361.76168,369.58133 318.3583,370.178 303.9584,370.76977 C 202.05309,377.67762 172.61894,250.08967 312.38048,244.90086 C 312.56838,244.89784 311.81701,281.177 311.75119,281.28146 C 255.13682,280.93864 227.34584,327.17661 292.0684,333.97746 C 329.57746,336.43488 369.05691,326.01054 405.00365,341.21567 C 447.48354,362.45043 456.75902,450.61516 362.61815,448.93419 C 361.81059,448.81844 363.1146,426.56666 362.13196,421.71267 z M 369.09243,245.22705 C 448.18133,247.33382 451.7446,192.5257 395.55716,183.35149 C 361.2647,178.72722 326.96297,186.10766 293.37976,192.33272 C 273.35998,195.07697 249.97869,195.40156 234.46526,180.36672 C 223.81929,168.21632 206.95223,168.55273 189.02849,173.41089 C 194.40385,163.67981 189.70321,149.30213 189.21434,148.78234 C 206.33276,153.90792 227.11846,152.93861 238.74808,141.7111 C 254.77004,127.10172 290.67889,131.17177 314.13843,143.83553 C 330.07996,153.06466 367.40682,143.62788 394.21376,145.29392 C 508.95374,143.22156 500.1875,290.71775 368.89443,279.80083 C 368.2404,280.05174 368.55279,244.53301 369.09243,245.22705 z M 290.56624,162.85708 C 290.71184,151.42394 254.83124,151.20859 254.66066,161.7989 C 254.46389,172.51245 290.45114,173.617 290.56624,162.85708 z" id="path2396" style="fill:#dd3436;fill-opacity:1"/>
  <path d="M 340.97054,250.97188 A 294.87366,294.87366 0 1 1 -248.77678,250.97188 A 294.87366,294.87366 0 1 1 340.97054,250.97188 z" transform="matrix(1.104057,0,0,1.104057,287.10642,61.000269)" id="path2383" style="opacity:1;fill:none;fill-opacity:1;fill-rule:nonzero;stroke:#dd3436;stroke-width:22.53992081;stroke-miterlimit:4;stroke-dasharray:none;stroke-dashoffset:0;stroke-opacity:1"/>
  <rect width="26.974567" height="113.75491" x="332.07422" y="199.8206" transform="matrix(0.9998808,1.5442093e-2,-1.5442093e-2,0.9998808,0,0)" id="rect3157" style="opacity:1;fill:#dd3436;fill-opacity:1;fill-rule:nonzero;stroke:none;stroke-width:25;stroke-miterlimit:4;stroke-dasharray:none;stroke-dashoffset:0;stroke-opacity:1"/>
  <rect width="26.974554" height="102.09016" x="332.11819" y="375.17004" transform="matrix(0.9998815,1.5391295e-2,-1.5391295e-2,0.9998815,0,0)" id="rect3159" style="opacity:1;fill:#dd3436;fill-opacity:1;fill-rule:nonzero;stroke:none;stroke-width:25;stroke-miterlimit:4;stroke-dasharray:none;stroke-dashoffset:0;stroke-opacity:1"/>
  <rect width="26.974566" height="29.185989" x="323.33026" y="529.53784" id="rect3161" style="opacity:1;fill:#dd3436;fill-opacity:1;fill-rule:nonzero;stroke:none;stroke-width:25;stroke-miterlimit:4;stroke-dasharray:none;stroke-dashoffset:0;stroke-opacity:1"/>
</svg>